<svg viewBox="0 0 77 24" xmlns="http://www.w3.org/2000/svg">
<path d="M15.3176 21.6888H3.96276C1.77816 21.6888 0 19.9107 0 17.7176V6.36278C0 4.17818 1.77816 2.40002 3.96276 2.40002H15.3176C17.5106 2.40002 19.2803 4.17818 19.2803 6.36278V17.7176C19.2888 19.9107 17.5106 21.6888 15.3176 21.6888Z" fill="#0E214B"/>
<path fill-rule="evenodd" clip-rule="evenodd" d="M59.8477 8.38648C61.0924 8.55583 61.9307 9.47878 61.7614 11.2993C61.3465 15.7701 57.4684 20.3425 51.7275 20.2155L51.5496 20.207L51.5666 20.1731C57.189 20.1901 60.7114 15.4653 61.0924 11.2739C61.2449 9.6312 60.4913 8.79292 59.3905 8.64051C57.7647 8.41189 55.8003 9.40258 54.6149 11.0791L54.5725 11.1384L54.5556 11.113C55.8088 9.21629 58.0188 8.13246 59.8477 8.38648ZM71.3888 8.32721C75.1992 8.54737 76.2999 11.3331 76.2745 12.8573C76.2068 16.9471 73.023 19.8175 67.5785 20.1985L67.4091 20.207L67.4176 20.1816C72.4896 19.7921 75.6141 16.5152 75.6818 12.4593C75.7072 11.0707 74.7589 8.69131 71.465 8.36955L71.3634 8.36108L71.3888 8.32721ZM51.2533 3.89028C51.8206 4.63541 51.1178 6.15108 50.7198 7.16717L50.7029 7.20951L47.5615 15.3721C47.3498 15.914 47.1042 16.5237 47.045 17.1841C46.9095 18.7167 48.2558 20.0377 50.9146 20.1731L50.9993 20.1816L50.9908 20.207C47.9002 20.1139 46.4184 18.5897 46.5623 16.9047C46.6216 16.2443 46.8248 15.7108 47.0196 15.2028L47.045 15.135L50.1695 7.0317C50.2033 6.93009 50.2372 6.83695 50.2795 6.73534L50.3134 6.63373C50.3303 6.58292 50.3473 6.54059 50.3727 6.48978L50.4065 6.39664C50.7452 5.49909 51.0247 4.66928 50.559 4.11043L50.5336 4.08503V4.04269L51.2533 3.89028ZM70.83 8.29334L70.8215 8.31875C66.0798 8.69978 62.625 12.0105 62.5488 16.041C62.5234 17.4297 63.4972 19.8598 66.7741 20.1393L66.8757 20.1477L66.8672 20.1731C63.0484 19.953 61.9477 17.1418 61.9731 15.6177C62.0408 11.511 65.5209 8.62357 70.83 8.29334ZM58.9163 8.93687C59.9239 9.08081 60.5675 9.81748 60.432 11.2654C60.0679 15.1604 56.5962 20.0038 51.7359 20.1308H51.592L51.6005 20.1054C56.0374 19.8344 59.4582 14.8641 59.7969 11.2485C59.9155 9.97836 59.3312 9.3179 58.4675 9.19936C57.2144 9.03001 55.6733 9.84288 54.6911 11.1723L54.6487 11.2231L54.6318 11.1977C55.6987 9.6312 57.4684 8.73365 58.9163 8.93687ZM71.355 8.39495C74.2847 8.63204 75.1822 10.7404 75.1653 12.0275C75.0976 15.9733 72.0916 19.7159 67.5954 20.1223L67.4599 20.1308L67.4684 20.1054C71.5243 19.6905 74.5387 15.5415 74.6065 11.621C74.6234 10.4695 73.7851 8.70825 71.4142 8.42882L71.3465 8.42035L71.355 8.39495ZM52.7351 3.58545C53.2177 4.23745 52.3456 6.16802 52.0238 6.98936L52.0069 7.02323L48.603 15.8209C48.3913 16.3374 48.0865 17.1164 48.0272 17.7769C47.9171 19.03 48.9925 19.9784 50.9654 20.1054H51.0247L51.0162 20.1308C48.6284 20.0377 47.4175 18.8946 47.5361 17.489C47.5954 16.8285 47.8494 16.1765 48.0611 15.6515L48.0865 15.5838L51.3803 7.04016C51.7359 6.15955 52.4557 4.58461 51.9815 3.82254L51.9561 3.78867V3.74633L52.7351 3.58545ZM70.7961 8.36955L70.7876 8.39495C66.8503 8.80986 63.7343 13.0351 63.6665 16.8793C63.6496 18.0309 64.3524 19.8175 66.8334 20.08L66.9096 20.0885L66.9011 20.1139C63.9714 19.9191 63.0653 17.743 63.0908 16.4559C63.15 12.5017 66.3846 8.69978 70.7961 8.36955ZM54.2592 3.27216C54.5048 3.99189 53.4972 6.31196 53.2939 6.84541L53.2855 6.86235L49.6529 16.2527C49.4413 16.7946 49.1026 17.6837 49.0433 18.3442C48.984 19.0385 49.3312 19.5296 50.034 19.7836C50.4912 19.953 50.8977 20.0123 51.0501 20.0292H51.067L51.0585 20.0546C49.3481 19.9361 48.4336 19.1655 48.5352 18.0394C48.5861 17.4212 48.8993 16.6168 49.1195 16.0749L49.1449 16.0156L52.6928 6.83695C52.9298 6.22729 53.8867 4.08503 53.5395 3.48384L53.5226 3.45844V3.4161L54.2592 3.27216ZM71.3211 8.47116C73.3702 8.69978 74.0476 10.1562 74.0307 11.1977C73.9629 14.9995 71.1348 19.5889 67.5954 20.0461L67.4854 20.0546L67.5023 20.0292C70.5929 19.6143 73.4041 14.5592 73.4718 10.7912C73.4888 9.87675 72.9299 8.75905 71.3634 8.49656L71.3042 8.48809L71.3211 8.47116ZM58.0188 9.49572C58.747 9.59733 59.2381 10.1646 59.1365 11.24C58.8401 14.4746 55.8342 19.4534 51.7613 20.0292L51.6343 20.0461L51.6428 20.0207C55.3854 19.2333 58.1966 14.1613 58.476 11.1977C58.5607 10.3255 58.1712 9.84288 57.5446 9.75821C56.6724 9.63966 55.5632 10.2409 54.7588 11.2654L54.7165 11.3162L54.6995 11.2908C55.5378 10.0884 56.9095 9.3433 58.0188 9.49572ZM24.4031 5.07572C24.4115 5.08419 24.42 5.08419 24.4285 5.09266L24.4539 5.10959C24.8518 5.40595 25.3006 5.83779 25.724 7.77683L25.7409 7.84457L28.3658 20.0207H27.7731C27.7731 20.0207 25.1736 7.95465 25.1651 7.93771C24.7926 6.23576 24.3184 5.49909 23.3785 5.10959L23.3362 5.09266V5.06725L24.4031 5.07572ZM26.376 5.07572C26.3845 5.14346 26.3929 5.20273 26.4014 5.27047L26.4099 5.32128C26.4776 5.82085 26.5707 6.32043 26.8756 7.63288L26.8925 7.70062L29.5513 20.0292H28.9586L26.3082 7.74296C25.9611 6.32043 25.8341 5.65997 25.4107 5.12653L25.3853 5.10112V5.07572H26.376ZM70.7622 8.43729L70.7453 8.46269C67.7648 8.8776 64.835 14.0258 64.7673 17.7007C64.7504 18.6151 65.3092 19.7752 66.8757 19.9953L66.9265 20.0038L66.9096 20.0292C64.8858 19.8598 64.1831 18.3188 64.2 17.2688C64.2847 13.5262 67.2652 8.80986 70.7622 8.43729ZM37.6207 10.1223C37.951 10.1223 38.1457 10.3086 38.1626 10.6642C38.1796 10.9775 37.9679 11.621 37.7139 12.2815L37.6715 12.3916L37.6207 12.5186C37.426 13.0097 37.2228 13.4923 37.0788 13.848L37.0534 13.8988L34.6063 20.0207H33.9967L36.4692 13.8564C36.7994 13.052 37.6207 11.1892 37.5953 10.6896C37.5869 10.4525 37.4599 10.3594 37.2736 10.3594C36.8333 10.3594 36.0627 11.4602 35.5631 12.5779L35.5377 12.6287H35.5039C36.0119 11.3501 36.8502 10.1223 37.6207 10.1223ZM38.2727 9.67353C38.8824 9.67353 39.2295 10.0546 39.2634 10.5965C39.3058 11.4094 38.6368 12.9504 38.2389 13.9242L38.2135 13.975L35.8341 20.0207H35.2244L37.6546 13.9242C38.0018 13.0012 38.7384 11.3501 38.7046 10.6134C38.6792 10.1646 38.4082 9.90215 37.9425 9.90215C36.8841 9.90215 36.0035 11.2315 35.4785 12.5694L35.4615 12.6202H35.4277C35.9188 11.1045 36.9518 9.67353 38.2727 9.67353ZM39.5852 8.75058C40.7621 8.75058 41.4057 9.50419 41.4565 10.4779C41.5157 11.5872 41.1262 12.6625 40.7029 13.7379L40.6351 13.8988L40.5843 14.0173L40.5335 14.1359L38.2812 20.0207H37.6715L39.9662 14.0935C40.398 12.9335 40.94 11.6634 40.8807 10.5033C40.8384 9.6312 40.2626 8.98767 39.2295 8.98767C37.0703 8.98767 35.8341 10.6812 35.2837 12.5694L35.2668 12.6287H35.2414C35.7494 10.5711 37.155 8.75058 39.5852 8.75058ZM38.9332 9.19936C39.8223 9.19936 40.3218 9.76668 40.3642 10.5203C40.415 11.5618 39.8392 12.8912 39.4243 13.9665L39.3989 14.0343L37.0788 20.0123H36.4438L38.8062 14.0089C39.2211 12.9674 39.8477 11.4771 39.7969 10.5626C39.763 9.90215 39.3396 9.42798 38.586 9.42798C37.0111 9.42798 35.9188 10.9436 35.3769 12.5609L35.3599 12.6117H35.3345C35.851 10.859 37.0195 9.19936 38.9332 9.19936ZM45.9611 8.30181C46.7402 8.30181 47.3752 8.80139 47.426 9.88522C47.5446 12.1037 45.5462 13.9157 43.3532 14.2713L43.2854 14.2798L43.2685 14.2544C45.1483 13.831 47.0111 12.1291 46.901 10.1223C46.8502 9.17395 46.2914 8.72518 45.6055 8.72518C44.3439 8.72518 43.2431 9.79208 42.5572 11.2061C42.5488 11.2739 42.5488 11.3501 42.5403 11.4263C43.1669 10.1223 44.1407 9.12315 45.233 9.12315C45.8426 9.12315 46.3083 9.52112 46.3507 10.3509C46.4438 12.0783 44.8265 13.7633 43.2685 14.1867L43.2177 14.1951L43.1923 14.1697C44.4793 13.6956 45.9019 12.0868 45.8257 10.5795C45.7918 9.89369 45.3938 9.53805 44.8773 9.53805C43.929 9.53805 43.0822 10.4949 42.498 11.7057C42.481 11.7989 42.4726 11.8835 42.4556 11.9767C42.9721 10.8505 43.7257 9.94449 44.5047 9.94449C44.9705 9.94449 45.2753 10.2493 45.3007 10.8166C45.3684 12.0783 44.2338 13.6109 43.1838 14.1105L43.15 14.1274L43.1246 14.102C43.8951 13.6024 44.8265 12.0952 44.7757 11.0537C44.7503 10.6304 44.5302 10.3679 44.1576 10.3679C43.531 10.3679 42.8705 11.2569 42.3879 12.2984C42.3456 12.4678 42.3032 12.6287 42.2439 12.798C42.6927 11.7565 43.2939 10.7743 43.7681 10.7743C44.0729 10.7743 44.1999 10.986 44.2169 11.2908C44.2592 12.0613 43.6495 13.5093 43.0992 14.0258L43.0738 14.0512L43.0484 14.0258C43.531 13.1621 43.7512 12.146 43.7088 11.5364C43.6919 11.3755 43.6326 11.1892 43.4209 11.1892C43.1669 11.1892 42.7181 11.9343 42.3117 12.7387L42.2694 12.8319L42.227 12.925C42.2101 12.9589 42.1931 12.9843 42.1847 13.0182L42.1593 13.0605C42.0492 13.3823 41.9222 13.7125 41.7952 14.0597L41.7444 14.1951L39.5344 20.0038H38.9247L41.1516 14.1443C41.6258 12.8912 42.0831 11.8073 42.0153 10.4102C41.9561 9.3433 41.2363 8.52196 39.9239 8.52196C37.2058 8.52196 35.7833 10.4187 35.2414 12.544L35.2244 12.6117H35.199C35.6986 10.3171 37.2143 8.29334 40.2626 8.29334C41.719 8.29334 42.5149 9.21629 42.5826 10.3933C42.5911 10.5795 42.5911 10.7574 42.5911 10.9267C43.3193 9.41951 44.5471 8.30181 45.9611 8.30181ZM55.8003 2.95886C56.0035 3.17902 54.5979 6.61679 54.4794 6.93009V6.93855L50.6944 16.71C50.5082 17.2095 50.0848 18.3103 50.0255 18.92C49.9747 19.5466 50.4404 19.8514 51.0585 19.9699L51.0924 19.9784L51.0755 20.0038C50.1525 19.8598 49.4582 19.428 49.5259 18.6405C49.5767 18.0224 49.9324 17.0825 50.1441 16.5237L50.161 16.4729L53.8613 6.88775C53.9544 6.62526 54.2338 5.95633 54.4878 5.22813L54.5302 5.10112C54.7842 4.37292 55.0128 3.61932 55.0128 3.18748V3.15361V3.11974L55.8003 2.95886ZM71.2872 8.54737C72.4727 8.74212 72.9299 9.57192 72.913 10.3763C72.8452 14.0343 70.2034 19.5042 67.6039 19.9784L67.5277 19.9869L67.5446 19.9615C69.653 19.572 72.2779 13.5855 72.3457 9.97836C72.3541 9.30943 72.0747 8.80986 71.3296 8.59817L71.2872 8.5897V8.54737ZM57.0873 10.0461C57.5785 10.1138 57.8748 10.5118 57.8155 11.1807C57.5785 13.7718 54.7757 19.0216 51.7698 19.9361L51.6767 19.9615L51.6936 19.9276C54.327 18.7845 56.9603 13.4669 57.172 11.1723C57.2144 10.6727 56.9857 10.3594 56.6386 10.3171C56.1136 10.2409 55.3769 10.6981 54.8181 11.3586L54.7842 11.4009L54.7673 11.3755C55.4277 10.5033 56.3591 9.94449 57.0873 10.0461ZM70.7284 8.5135L70.7114 8.5389C68.6708 8.9538 65.9443 15.0504 65.885 18.522C65.8765 19.1994 66.1221 19.7582 66.9265 19.9191L66.9688 19.9276L66.9519 19.953C65.7157 19.8175 65.3092 18.903 65.3262 18.0986C65.3939 14.5254 68.1966 8.88606 70.7284 8.5135ZM57.3922 2.64557L51.7359 17.1672C51.5242 17.7091 51.0416 18.8184 50.9908 19.4365C50.9739 19.6736 51.0501 19.8514 51.1263 19.9022L51.1347 19.9107L51.1178 19.953C51.067 19.9361 51.0331 19.9191 50.9908 19.9022C50.7283 19.7752 50.5251 19.4534 50.5336 19.1909C50.559 18.5897 50.9908 17.5144 51.2025 16.9809L51.2194 16.9386L55.0721 6.97242C55.106 6.87082 55.5378 5.80392 55.9358 4.77089L55.9781 4.65235C56.3168 3.76327 56.6301 2.93346 56.6216 2.81492V2.80645L57.3922 2.64557ZM28.0017 5.07572C27.8493 5.5753 27.7562 6.3035 28.1287 7.86997L28.1457 7.94618L30.3472 18.3696L29.9577 19.1909L27.4852 7.67522C27.2312 6.55752 27.1635 5.98173 27.1465 5.45675V5.38902C27.1465 5.32128 27.1465 5.25354 27.1465 5.1858V5.11806V5.08419L28.0017 5.07572ZM29.7291 5.07572V5.10112C29.1872 5.58377 29.0432 6.43898 29.3565 8.05626L29.3735 8.12399L31.1431 16.7015L30.7452 17.5313L28.7469 7.96311C28.4166 6.34583 28.5013 5.71078 28.7807 5.10112L28.7892 5.07572H29.7291ZM32.1762 5.07572V5.10112C30.6605 5.38902 30.2202 6.23576 30.5928 8.16633L31.9306 15.0334L31.5327 15.8717L30 8.18327C29.5259 5.9394 30.3387 5.30434 30.7536 5.09266L30.779 5.08419L32.1762 5.07572ZM39.5005 5.07572V5.10112C37.2058 5.79545 36.1728 7.12484 34.4116 10.4271L34.3608 10.5287L34.3184 10.5033C35.868 7.19258 36.6131 5.82932 37.8324 5.09266L37.8663 5.06725C37.8663 5.07572 39.5005 5.07572 39.5005 5.07572ZM36.7486 5.07572V5.10112C36.5538 5.38902 36.3845 5.68538 36.1897 6.07488L36.1559 6.15108C35.7579 6.95549 35.2668 8.14093 34.3184 10.4017L34.2846 10.4864L34.2422 10.461C35.1821 7.8361 35.6648 6.54905 35.5547 5.16886V5.11806V5.08419C35.5462 5.07572 36.7486 5.07572 36.7486 5.07572ZM34.6148 5.07572C35.4361 5.90553 35.1482 7.27725 34.2338 10.334L34.2084 10.4271L34.166 10.4017C35.0382 6.94702 34.7587 5.59223 33.4802 5.11806L33.4378 5.10112V5.07572H34.6148Z" fill="#0E214B"/>
<path d="M12.0491 10.461L12.083 10.4864C12.8959 7.79377 13.1584 6.60833 12.4386 5.88013H11.4141V5.90553C12.5572 6.3035 12.8197 7.45507 12.0491 10.461Z" fill="#8EC089"/>
<path fill-rule="evenodd" clip-rule="evenodd" d="M15.2837 5.88013C14.1999 6.50672 13.5564 7.67522 12.1931 10.5541L12.227 10.5795C13.7935 7.66675 14.6825 6.50672 16.7063 5.90553V5.88013H15.2837Z" fill="#2474DE"/>
<path d="M12.1169 10.5118L12.1508 10.5372C13.4379 7.51434 13.7681 6.693 14.3015 5.90553V5.88013H13.26V5.914C13.3701 7.11637 12.9468 8.22561 12.1169 10.5118Z" fill="#E85F24"/>
<path fill-rule="evenodd" clip-rule="evenodd" d="M3.54795 5.88013H2.625V5.90553C3.47174 6.23576 3.87818 6.87082 4.21688 8.35262C4.21688 8.36955 6.48615 18.7506 6.48615 18.7506H7.00266L4.71645 8.26794C4.31849 6.47285 3.90358 6.14262 3.54795 5.88013Z" fill="#76C5F7"/>
<path fill-rule="evenodd" clip-rule="evenodd" d="M8.38281 18.0224L8.7215 17.3196L6.80786 8.34415C6.46917 6.94702 6.54537 6.31197 6.68932 5.88013H5.94419C5.93572 6.44744 5.96112 6.91315 6.23208 8.10706L8.38281 18.0224Z" fill="#2474DE"/>
<path d="M5.26675 5.88013H4.40308V5.90553C4.79258 6.37124 4.90265 6.93856 5.20748 8.18327L7.51062 18.7591H8.02714L5.72399 8.14093C5.39377 6.78614 5.34296 6.40511 5.26675 5.88013Z" fill="#318EEE"/>
<path d="M9.06863 16.5999L9.4158 15.8886L7.87473 8.50503C7.58683 7.07403 7.71385 6.3289 8.18802 5.90553V5.88013H7.36668C7.11266 6.41357 7.03645 6.94702 7.32434 8.36955L9.06863 16.5999Z" fill="#E85F24"/>
<path d="M8.41655 8.55585C8.00164 6.58294 8.74678 6.05796 9.09394 5.88861H10.3133V5.91401C8.99233 6.16804 8.6113 6.88777 8.93306 8.55585L10.1016 14.4661L9.7544 15.1858L8.41655 8.55585Z" fill="#8EC089"/>
</svg>
